<svg width="23" height="17" viewBox="0 0 23 17" fill="none" xmlns="http://www.w3.org/2000/svg">
    <path fill-rule="evenodd" clip-rule="evenodd"
        d="M8.78033 0.21967C9.07322 0.512563 9.07322 0.987437 8.78033 1.28033L1.81066 8.25L8.78033 15.2197C9.07322 15.5126 9.07322 15.9874 8.78033 16.2803C8.48744 16.5732 8.01256 16.5732 7.71967 16.2803L0.21967 8.78033C0.0790176 8.63968 0 8.44891 0 8.25C0 8.05109 0.0790176 7.86032 0.21967 7.71967L7.71967 0.21967C8.01256 -0.0732233 8.48744 -0.0732233 8.78033 0.21967Z"
        fill="white" />
    <path fill-rule="evenodd" clip-rule="evenodd"
        d="M0.209961 8.25012C0.209961 7.83591 0.545747 7.50012 0.959961 7.50012H21.7549C22.1691 7.50012 22.5049 7.83591 22.5049 8.25012C22.5049 8.66434 22.1691 9.00012 21.7549 9.00012H0.959961C0.545747 9.00012 0.209961 8.66434 0.209961 8.25012Z"
        fill="white" />
</svg>