<svg width="23" height="17" viewBox="0 0 23 17" fill="none" xmlns="http://www.w3.org/2000/svg">
    <path fill-rule="evenodd" clip-rule="evenodd"
        d="M13.7246 0.21967C13.4317 0.512563 13.4317 0.987437 13.7246 1.28033L20.6942 8.25L13.7246 15.2197C13.4317 15.5126 13.4317 15.9874 13.7246 16.2803C14.0174 16.5732 14.4923 16.5732 14.7852 16.2803L22.2852 8.78033C22.4259 8.63968 22.5049 8.44891 22.5049 8.25C22.5049 8.05109 22.4259 7.86032 22.2852 7.71967L14.7852 0.21967C14.4923 -0.0732233 14.0174 -0.0732233 13.7246 0.21967Z"
        fill="white" />
    <path fill-rule="evenodd" clip-rule="evenodd"
        d="M22.2949 8.25012C22.2949 7.83591 21.9591 7.50012 21.5449 7.50012H0.750029C0.335815 7.50012 2.86102e-05 7.83591 2.86102e-05 8.25012C2.86102e-05 8.66434 0.335815 9.00012 0.750029 9.00012H21.5449C21.9591 9.00012 22.2949 8.66434 22.2949 8.25012Z"
        fill="white" />
</svg>