<svg width="40" height="40" viewBox="0 0 40 40" fill="none" xmlns="http://www.w3.org/2000/svg">
<path d="M13.0526 16.842C12.5894 17.3051 12.5894 18.0209 13.0526 18.4841C13.5158 18.9472 14.2316 18.9472 14.6947 18.4841L18.821 14.3577L18.821 28.4209C18.821 29.0525 19.3263 29.5999 20 29.5999C20.6737 29.5999 21.1789 29.0946 21.1789 28.4209L21.1789 14.3577L25.3052 18.4841C25.7684 18.9472 26.4842 18.9472 26.9473 18.4841C27.1579 18.2735 27.2842 17.9788 27.2842 17.642C27.2842 17.3051 27.1579 17.0525 26.9473 16.7999L20.8421 10.7367C20.3789 10.2735 19.6631 10.2735 19.2 10.7367L13.0526 16.842Z" fill="#1A1818"/>
<path d="M2.68342e-06 9.30526L8.13492e-07 30.6947C3.64415e-07 35.8316 4.16842 40 9.30526 40L30.6947 40C35.8316 40 40 35.8316 40 30.6947L40 9.30526C40 4.16842 35.8316 -3.64415e-07 30.6947 -8.13492e-07L9.30527 -2.68342e-06C4.16842 -3.1325e-06 3.1325e-06 4.16842 2.68342e-06 9.30526ZM30.6947 2.31579C34.5263 2.31579 37.6842 5.47368 37.6842 9.30526L37.6842 30.6947C37.6842 34.5263 34.5263 37.6842 30.6947 37.6842L9.30526 37.6842C5.47368 37.6842 2.31579 34.5263 2.31579 30.6947L2.31579 9.30526C2.31579 5.47368 5.47369 2.31579 9.30526 2.31579L30.6947 2.31579Z" fill="#1A1818"/>
</svg>
