<svg width="57" height="56" viewBox="0 0 57 56" fill="none" xmlns="http://www.w3.org/2000/svg">
<path d="M19.167 4.66663V11.6666" stroke="#292D32" stroke-width="2" stroke-miterlimit="10" stroke-linecap="round" stroke-linejoin="round"/>
<path d="M37.833 4.66663V11.6666" stroke="#292D32" stroke-width="2" stroke-miterlimit="10" stroke-linecap="round" stroke-linejoin="round"/>
<path d="M8.66699 21.21H48.3337" stroke="#292D32" stroke-width="2" stroke-miterlimit="10" stroke-linecap="round" stroke-linejoin="round"/>
<path d="M19.1667 8.16669C11 8.16669 7.5 12.8334 7.5 19.8334V20.9997H49.5V19.8334C49.5 12.8334 46 8.16669 37.8333 8.16669H19.1667Z" fill="#FFD550"/>
<path d="M7.5 20.9997V39.6667C7.5 46.6667 11 51.3334 19.1667 51.3334H37.8333C46 51.3334 49.5 46.6667 49.5 39.6667V20.9997M7.5 20.9997V19.8334C7.5 12.8334 11 8.16669 19.1667 8.16669H37.8333C46 8.16669 49.5 12.8334 49.5 19.8334V20.9997M7.5 20.9997H49.5" stroke="#292D32" stroke-width="2" stroke-miterlimit="10" stroke-linecap="round" stroke-linejoin="round"/>
<path d="M37.1206 31.9667H37.1416" stroke="#292D32" stroke-width="2" stroke-linecap="round" stroke-linejoin="round"/>
<path d="M37.1206 38.9667H37.1416" stroke="#292D32" stroke-width="2" stroke-linecap="round" stroke-linejoin="round"/>
<path d="M28.4898 31.9667H28.5107" stroke="#292D32" stroke-width="2" stroke-linecap="round" stroke-linejoin="round"/>
<path d="M28.4898 38.9667H28.5107" stroke="#292D32" stroke-width="2" stroke-linecap="round" stroke-linejoin="round"/>
<path d="M19.8531 31.9667H19.874" stroke="#292D32" stroke-width="2" stroke-linecap="round" stroke-linejoin="round"/>
<path d="M19.8531 38.9667H19.874" stroke="#292D32" stroke-width="2" stroke-linecap="round" stroke-linejoin="round"/>
</svg>
