<svg width="24" height="24" viewBox="0 0 24 24" fill="none" xmlns="http://www.w3.org/2000/svg">
    <path
        d="M21.97 18.329C21.97 18.689 21.89 19.059 21.72 19.419C21.55 19.779 21.33 20.119 21.04 20.439C20.55 20.979 20.01 21.369 19.4 21.619C18.8 21.869 18.15 21.999 17.45 21.999C16.43 21.999 15.34 21.759 14.19 21.269C13.04 20.779 11.89 20.119 10.75 19.289C9.6 18.449 8.51 17.519 7.47 16.489C6.44 15.449 5.51 14.359 4.68 13.219C3.86 12.079 3.2 10.939 2.72 9.80902C2.24 8.66902 2 7.57902 2 6.53902C2 5.85902 2.12 5.20902 2.36 4.60902C2.6 3.99902 2.98 3.43902 3.51 2.93902C4.15 2.30902 4.85 1.99902 5.59 1.99902C5.87 1.99902 6.15 2.05902 6.4 2.17902C6.66 2.29902 6.89 2.47902 7.07 2.73902L9.39 6.00902C9.57 6.25902 9.7 6.48902 9.79 6.70902C9.88 6.91902 9.93 7.12902 9.93 7.31902C9.93 7.55902 9.86 7.79902 9.72 8.02902C9.59 8.25902 9.4 8.49902 9.16 8.73902L8.4 9.52902C8.29 9.63902 8.24 9.76902 8.24 9.92902C8.24 10.009 8.25 10.079 8.27 10.159C8.3 10.239 8.33 10.299 8.35 10.359C8.53 10.689 8.84 11.119 9.28 11.639C9.73 12.159 10.21 12.689 10.73 13.219C11.27 13.749 11.79 14.239 12.32 14.689C12.84 15.129 13.27 15.429 13.61 15.609C13.66 15.629 13.72 15.659 13.79 15.689C13.87 15.719 13.95 15.729 14.04 15.729C14.21 15.729 14.34 15.669 14.45 15.559L15.21 14.809C15.46 14.559 15.7 14.369 15.93 14.249C16.16 14.109 16.39 14.039 16.64 14.039C16.83 14.039 17.03 14.079 17.25 14.169C17.47 14.259 17.7 14.389 17.95 14.559L21.26 16.909C21.52 17.089 21.7 17.299 21.81 17.549C21.91 17.799 21.97 18.049 21.97 18.329Z"
        stroke="#292D32" stroke-width="1.5" stroke-miterlimit="10" />
    <path d="M18.5 8.99902C18.5 8.39902 18.03 7.47902 17.33 6.72902C16.69 6.03902 15.84 5.49902 15 5.49902"
        stroke="#292D32" stroke-width="1.5" stroke-linecap="round" stroke-linejoin="round" />
    <path d="M22 8.99902C22 5.12902 18.87 1.99902 15 1.99902" stroke="#292D32" stroke-width="1.5" stroke-linecap="round"
        stroke-linejoin="round" />
</svg>