<svg width="82" height="82" viewBox="0 0 82 82" fill="none" xmlns="http://www.w3.org/2000/svg">
    <path
        d="M48.7277 12.2978C45.0847 8.65476 43.2631 6.83325 40.9997 6.83325C38.7362 6.83325 36.9147 8.65476 33.2717 12.2978C31.0856 14.4839 28.9193 15.4988 25.8026 15.4988C23.0813 15.4988 19.2096 14.971 17.083 17.1155C14.9732 19.2431 15.4986 23.0988 15.4986 25.8028C15.4986 28.9195 14.4836 31.0858 12.2975 33.272C8.65451 36.9149 6.83304 38.7364 6.83301 40.9998C6.83306 43.2633 8.65456 45.0849 12.2976 48.7278C14.7465 51.1768 15.4986 52.7581 15.4986 56.1969C15.4986 58.9183 14.9709 62.79 17.1154 64.9166C19.243 67.0263 23.0987 66.5009 25.8026 66.5009C29.1216 66.5009 30.7199 67.1501 33.0886 69.5189C35.1057 71.536 37.8095 75.1665 40.9998 75.1666C44.1899 75.1665 46.8937 71.5359 48.9107 69.5189C51.2795 67.1501 52.8777 66.5009 56.1968 66.5009C58.9007 66.5009 62.7564 67.0263 64.8839 64.9166M69.7019 33.272C73.3448 36.9149 75.1663 38.7364 75.1663 40.9998C75.1663 43.2633 73.3448 45.0849 69.7018 48.7278C67.2528 51.1767 66.5007 52.7581 66.5007 56.1969C66.5007 58.9183 67.0285 62.79 64.8839 64.9166M64.8839 64.9166H64.9163"
        stroke="#00CA20" stroke-width="3" stroke-linecap="round" stroke-linejoin="round" />
    <path
        d="M27.333 35.2179C27.333 35.2179 35.0205 34.1666 40.9997 47.8333C40.9997 47.8333 58.284 13.6666 75.1663 6.83325"
        stroke="#00CA20" stroke-width="3" stroke-linecap="round" stroke-linejoin="round" />
</svg>