<svg width="38" height="38" viewBox="0 0 38 38" fill="none" xmlns="http://www.w3.org/2000/svg">
    <circle cx="19" cy="19" r="19" fill="#EE0033" fill-opacity="0.2" />
    <path
        d="M14 25C12.1711 25.4117 11 26.0443 11 26.7537C11 27.9943 14.5817 29 19 29C23.4183 29 27 27.9943 27 26.7537C27 26.0443 25.8289 25.4117 24 25"
        stroke="#EE0033" stroke-width="1.5" stroke-linecap="round" />
    <path
        d="M21.5 16C21.5 17.3807 20.3807 18.5 19 18.5C17.6193 18.5 16.5 17.3807 16.5 16C16.5 14.6193 17.6193 13.5 19 13.5C20.3807 13.5 21.5 14.6193 21.5 16Z"
        stroke="#EE0033" stroke-width="1.5" />
    <path
        d="M20.2574 24.4936C19.9201 24.8184 19.4693 25 19.0002 25C18.531 25 18.0802 24.8184 17.7429 24.4936C14.6543 21.5008 10.5152 18.1575 12.5337 13.3037C13.6251 10.6793 16.2449 9 19.0002 9C21.7554 9 24.3752 10.6793 25.4666 13.3037C27.4826 18.1514 23.3536 21.5111 20.2574 24.4936Z"
        stroke="#EE0033" stroke-width="1.5" />
</svg>