<svg width="22" height="18" viewBox="0 0 22 18" fill="none" xmlns="http://www.w3.org/2000/svg">
    <path
        d="M21.5998 0.89999C21.5998 0.359996 21.2398 0 20.6998 0H0.89999C0.359996 0 0 0.359996 0 0.89999V2.69997C0 3.23996 0.359996 3.59996 0.89999 3.59996H20.6998C21.2398 3.59996 21.5998 3.23996 21.5998 2.69997V0.89999Z"
        fill="white" />
    <path
        d="M21.5998 8.09982C21.5998 7.55983 21.2398 7.19983 20.6998 7.19983H0.89999C0.359996 7.19983 0 7.55983 0 8.09982V9.8998C0 10.4398 0.359996 10.7998 0.89999 10.7998H20.6998C21.2398 10.7998 21.5998 10.4398 21.5998 9.8998V8.09982Z"
        fill="white" />
    <path
        d="M21.5998 15.3C21.5998 14.76 21.2398 14.4 20.6998 14.4H0.89999C0.359996 14.4 0 14.76 0 15.3V17.1C0 17.64 0.359996 18 0.89999 18H20.6998C21.2398 18 21.5998 17.64 21.5998 17.1V15.3Z"
        fill="white" />
</svg>