<svg width="30" height="30" viewBox="0 0 30 30" fill="none" xmlns="http://www.w3.org/2000/svg">
  <path fill-rule="evenodd" clip-rule="evenodd"
    d="M14.9997 7.99537C13.0402 7.99537 11.4695 9.57591 11.4695 11.5256C11.4695 13.4076 12.9397 14.9421 14.8025 15.0397C14.9308 15.0292 15.0677 15.0282 15.2006 15.0395C17.0554 14.9404 18.5178 13.4118 18.53 11.5226C18.5283 9.57639 16.9463 7.99537 14.9997 7.99537ZM9.37646 11.5256C9.37646 8.42413 11.8801 5.90234 14.9997 5.90234C18.1033 5.90234 20.623 8.42205 20.623 11.5256V11.5315H20.623C20.6059 14.5571 18.226 17.0312 15.2028 17.1343C15.1414 17.1364 15.08 17.1331 15.0192 17.1244C15.0252 17.1252 15.0264 17.1252 15.0225 17.1249C15.0189 17.1247 15.0129 17.1244 15.005 17.1244C14.9878 17.1244 14.972 17.1256 14.9621 17.1268C14.9072 17.1337 14.8519 17.1362 14.7966 17.1343C11.7787 17.0314 9.37646 14.5611 9.37646 11.5256Z"
    fill="#292D32" />
  <path fill-rule="evenodd" clip-rule="evenodd"
    d="M8.64675 22.5676C7.57207 23.2915 6.97135 24.1198 6.73727 24.9069C8.97847 26.7837 11.8517 27.9069 15 27.9069C18.1483 27.9069 21.0215 26.7837 23.2627 24.9069C23.0285 24.1194 22.4274 23.2907 21.3518 22.5666C19.6631 21.4371 17.3669 20.8395 15.0105 20.8395C12.6551 20.8395 10.3508 21.4367 8.64675 22.5676ZM15.0105 18.7465C17.6838 18.7465 20.4103 19.4183 22.5169 20.8279L22.5191 20.8294C24.1973 21.9586 25.2649 23.4913 25.4453 25.1869C25.4804 25.5174 25.3565 25.845 25.1114 26.0694C22.4425 28.5135 18.8998 29.9999 15 29.9999C11.1001 29.9999 7.55754 28.5135 4.88859 26.0694C4.64347 25.845 4.51955 25.5174 4.55471 25.1869C4.7351 23.4913 5.80274 21.9586 7.48088 20.8294L7.48607 20.8259L7.48608 20.8259C9.60501 19.4184 12.3368 18.7465 15.0105 18.7465Z"
    fill="#292D32" />
  <path fill-rule="evenodd" clip-rule="evenodd"
    d="M15 2.09302C7.87167 2.09302 2.09302 7.87167 2.09302 15C2.09302 22.1283 7.87167 27.907 15 27.907C22.1283 27.907 27.907 22.1283 27.907 15C27.907 7.87167 22.1283 2.09302 15 2.09302ZM0 15C0 6.71573 6.71573 0 15 0C23.2843 0 30 6.71573 30 15C30 23.2843 23.2843 30 15 30C6.71573 30 0 23.2843 0 15Z"
    fill="#292D32" />
</svg>