<svg width="20" height="20" viewBox="0 0 20 20" fill="none" xmlns="http://www.w3.org/2000/svg">
    <path fill-rule="evenodd" clip-rule="evenodd"
        d="M9.54116 1.65135C5.18374 1.65135 1.65135 5.18374 1.65135 9.54116C1.65135 13.8986 5.18374 17.431 9.54116 17.431C13.8986 17.431 17.431 13.8986 17.431 9.54116C17.431 5.18374 13.8986 1.65135 9.54116 1.65135ZM0 9.54116C0 4.27172 4.27172 0 9.54116 0C14.8106 0 19.0823 4.27172 19.0823 9.54116C19.0823 14.8106 14.8106 19.0823 9.54116 19.0823C4.27172 19.0823 0 14.8106 0 9.54116Z"
        fill="white" />
    <path fill-rule="evenodd" clip-rule="evenodd"
        d="M16.7555 16.7556C17.078 16.4332 17.6007 16.4332 17.9232 16.7556L19.758 18.5905C20.0805 18.9129 20.0805 19.4357 19.758 19.7582C19.4356 20.0806 18.9128 20.0806 18.5903 19.7582L16.7555 17.9233C16.4331 17.6009 16.4331 17.0781 16.7555 16.7556Z"
        fill="white" />
</svg>