<svg width="25" height="25" viewBox="0 0 25 25" fill="none" xmlns="http://www.w3.org/2000/svg">
  <path fill-rule="evenodd" clip-rule="evenodd"
    d="M11.9264 2.06419C6.47967 2.06419 2.06419 6.47967 2.06419 11.9264C2.06419 17.3732 6.47967 21.7887 11.9264 21.7887C17.3732 21.7887 21.7887 17.3732 21.7887 11.9264C21.7887 6.47967 17.3732 2.06419 11.9264 2.06419ZM0 11.9264C0 5.33965 5.33965 0 11.9264 0C18.5132 0 23.8529 5.33965 23.8529 11.9264C23.8529 18.5132 18.5132 23.8529 11.9264 23.8529C5.33965 23.8529 0 18.5132 0 11.9264Z"
    fill="#1A1818" />
  <path fill-rule="evenodd" clip-rule="evenodd"
    d="M20.9444 20.9445C21.3474 20.5414 22.0009 20.5414 22.404 20.9445L24.6975 23.2381C25.1006 23.6411 25.1006 24.2946 24.6975 24.6977C24.2945 25.1007 23.641 25.1007 23.2379 24.6977L20.9444 22.4041C20.5413 22.0011 20.5413 21.3476 20.9444 20.9445Z"
    fill="#1A1818" />
</svg>