<svg width="140" height="51" viewBox="0 0 140 51" fill="none" xmlns="http://www.w3.org/2000/svg">
    <path
        d="M32.8911 6.15466H30.5689C29.6448 6.15466 28.8955 6.90852 28.8955 7.83821V25.1403C28.8955 26.07 29.6448 26.8238 30.5689 26.8238H32.8911C33.8152 26.8238 34.5645 26.07 34.5645 25.1403V7.83764C34.5645 6.90795 33.8152 6.15466 32.8911 6.15466Z"
        fill="white" />
    <path
        d="M24.5401 6.15466C23.0763 6.15466 21.8478 7.03723 21.2521 8.30133L15.0857 21.4807C14.94 21.7927 14.6499 22.2995 14.4072 22.2995C14.165 22.2995 13.8743 21.7927 13.7287 21.4807L7.52054 8.30133C6.92543 7.03781 5.69637 6.15466 4.23258 6.15466H0.646484L10.4338 25.2247C11.403 27.0967 13.3894 27.0577 14.4072 27.0577C15.8127 27.0577 17.4598 26.9795 18.3319 25.2247L28.1199 6.15466H24.5401Z"
        fill="white" />
    <path
        d="M132.684 2.9875C132.684 2.05782 131.934 1.30396 131.01 1.30396H128.688C127.764 1.30396 127.015 2.05782 127.015 2.9875V20.0775C127.015 22.6908 127.935 24.2111 129.582 25.3029C131.182 26.3561 133.022 26.8238 136.463 26.8238H138.326C139.25 26.8238 140 26.0699 140 25.1402V23.3142H138.595C137.577 23.3142 135.446 23.2751 134.185 22.4173C132.538 21.325 132.683 19.3754 132.683 17.9711V2.9875H132.684Z"
        fill="white" />
    <path
        d="M96.3928 23.3138C95.375 23.3138 93.243 23.2747 91.9837 22.4169C90.3365 21.3246 90.4816 19.375 90.4816 17.9707V9.66441H95.9793C96.9033 9.66441 97.6521 8.91055 97.6521 7.98086V6.15424H90.4816V2.98653H90.481C90.481 2.05684 89.7317 1.30298 88.8076 1.30298H86.4854C85.5614 1.30298 84.812 2.05684 84.812 2.98653V6.15424H72.9898V2.98653C72.9898 2.05684 72.2404 1.30298 71.3163 1.30298H68.9942C68.0701 1.30298 67.3208 2.05684 67.3208 2.98653V6.15424H63.7832V7.98086C63.7832 8.91055 64.5325 9.66441 65.456 9.66441H67.3202V20.0766C67.3202 22.6898 68.2408 24.2102 69.888 25.3019C71.4871 26.3551 73.3279 26.8228 76.7689 26.8228H78.6325C79.5565 26.8228 80.3059 26.069 80.3059 25.1393V23.3132H78.9009C77.8832 23.3132 75.7511 23.2741 74.4912 22.4163C72.8435 21.324 72.9892 19.3744 72.9892 17.9701V9.66441H84.8115V20.0766C84.8115 22.6898 85.7321 24.2102 87.3798 25.3019C88.979 26.3551 90.8197 26.8228 94.2602 26.8228H96.1238C97.0478 26.8228 97.7972 26.069 97.7972 25.1393V23.3132H96.3928V23.3138Z"
        fill="white" />
    <path
        d="M61.6995 25.1403V23.3137H49.1502C47.0667 23.3137 44.6926 23.0798 43.9661 20.8567C43.7719 20.2327 43.6263 18.9066 43.6263 18.0102H58.5498C59.5675 18.0102 60.5362 17.8539 61.3117 17.2299C62.3775 16.372 62.5231 15.1631 62.5231 14.1099C62.5231 11.4972 61.8932 8.92306 58.889 7.40269C56.5149 6.19376 53.4142 6.07654 50.4101 6.07654C47.9874 6.07654 43.6263 6.07654 40.8163 8.02612C38.0058 9.9757 37.7637 12.8228 37.7637 16.6835C37.7637 19.4133 37.9087 22.2599 39.605 24.21C41.7364 26.6279 44.8376 26.8233 47.4545 26.8233H60.0267C60.9508 26.8238 61.6995 26.0705 61.6995 25.1403ZM56.6605 13.2917C56.6605 13.8375 56.5154 14.5006 55.4006 14.5006H47.3374C45.2877 14.5006 43.6257 15.4435 43.6257 16.6065V14.5006C43.6743 13.1359 43.6257 12.0046 44.7891 10.9519C46.3397 9.54763 48.6653 9.58671 50.1674 9.58671C51.7665 9.58671 53.6073 9.66485 55.0128 10.5227C55.8369 11.0295 56.6605 12.0046 56.6605 13.2917Z"
        fill="white" />
    <path
        d="M122.993 25.1403V23.3137H110.444C108.361 23.3137 105.987 23.0798 105.26 20.8567C105.066 20.2327 104.92 18.9066 104.92 18.0102H119.844C120.862 18.0102 121.831 17.8539 122.606 17.2299C123.672 16.372 123.818 15.1631 123.818 14.1099C123.818 11.4972 123.187 8.92306 120.183 7.40269C117.809 6.19376 114.708 6.07654 111.704 6.07654C109.281 6.07654 104.92 6.07654 102.11 8.02612C99.2998 9.9757 99.0576 12.8228 99.0576 16.6835C99.0576 19.4133 99.2027 22.2599 100.899 24.21C103.03 26.6279 106.132 26.8233 108.748 26.8233H121.321C122.244 26.8238 122.993 26.0705 122.993 25.1403ZM117.954 13.2917C117.954 13.8375 117.809 14.5006 116.695 14.5006H108.632C106.582 14.5006 104.92 15.4435 104.92 16.6065V14.5006C104.969 13.1359 104.92 12.0046 106.083 10.9519C107.634 9.54763 109.96 9.58671 111.461 9.58671C113.06 9.58671 114.901 9.66485 116.307 10.5227C117.131 11.0295 117.954 12.0046 117.954 13.2917Z"
        fill="white" />
    <path
        d="M32.8911 0.370728H30.5689C29.6448 0.370728 28.8955 1.12459 28.8955 2.05427V2.52084V6.15512H28.9184C29.0788 5.20015 30.1577 4.20438 31.73 4.20438H32.8911C33.8152 4.20438 34.5645 3.45052 34.5645 2.52084V2.05427C34.5645 1.12459 33.8152 0.370728 32.8911 0.370728Z"
        fill="white" />
    <path d="M69.1645 34.7583H67.6045V46.5004H74.2304V45.0243H69.1645V34.7583Z" fill="white" />
    <path
        d="M83.5617 45.4436C84.4172 44.5881 84.8533 43.5481 84.8533 42.3068C84.8533 41.0655 84.4172 40.0255 83.5617 39.17C82.7062 38.3145 81.6494 37.8951 80.4249 37.8951C79.2003 37.8951 78.1436 38.3145 77.2881 39.17C76.4326 40.0255 76.0132 41.0655 76.0132 42.3068C76.0132 43.5481 76.4326 44.5881 77.2881 45.4436C78.1436 46.2991 79.2003 46.7185 80.4249 46.7185C81.6494 46.7185 82.7062 46.2991 83.5617 45.4436ZM80.4249 45.2927C79.6029 45.2927 78.8984 45.0075 78.3281 44.4372C77.7577 43.8668 77.4726 43.1623 77.4726 42.3068C77.4726 41.4513 77.7577 40.7468 78.3281 40.1764C78.8984 39.6061 79.6029 39.3209 80.4249 39.3209C81.2636 39.3209 81.9681 39.6061 82.5385 40.1764C83.1088 40.7468 83.394 41.4513 83.394 42.3068C83.394 43.1623 83.1088 43.8668 82.5385 44.4372C81.9681 45.0075 81.2636 45.2927 80.4249 45.2927Z"
        fill="white" />
    <path
        d="M94.3739 39.5558C93.6526 38.4487 92.5958 37.8951 91.2203 37.8951C90.0293 37.8951 89.0061 38.3145 88.1841 39.17C87.3622 40.0087 86.9428 41.0319 86.9428 42.2565C86.9428 43.481 87.3622 44.5043 88.1841 45.3597C89.0061 46.2152 90.0293 46.6346 91.2203 46.6346C92.579 46.6346 93.6358 46.081 94.3739 44.9572V46.1481C94.3739 47.7417 93.3171 48.7146 91.5725 48.7146C90.2138 48.7146 89.2912 48.245 88.8383 47.3056L87.5635 48.0269C88.2512 49.3521 89.6603 50.0734 91.539 50.0734C92.7132 50.0734 93.7197 49.7211 94.5584 49.0334C95.3971 48.3456 95.8165 47.3895 95.8165 46.1481V38.1132H94.3739V39.5558ZM94.3739 42.2565C94.3739 43.112 94.0887 43.8165 93.5184 44.3868C92.9481 44.9572 92.2435 45.2423 91.388 45.2423C90.5325 45.2423 89.828 44.9572 89.2577 44.3868C88.6873 43.8165 88.4022 43.112 88.4022 42.2565C88.4022 41.4178 88.6873 40.7132 89.2577 40.1429C89.828 39.5726 90.5325 39.2874 91.388 39.2874C92.2435 39.2874 92.9481 39.5726 93.5184 40.1429C94.0887 40.7132 94.3739 41.4178 94.3739 42.2565Z"
        fill="white" />
    <path
        d="M99.6044 37.0732C100.141 37.0732 100.577 36.637 100.577 36.1003C100.577 35.5635 100.141 35.1106 99.6044 35.1106C99.0508 35.1106 98.6147 35.5635 98.6147 36.1003C98.6147 36.637 99.0508 37.0732 99.6044 37.0732ZM100.326 46.5004V38.1132H98.8663V46.5004H100.326Z"
        fill="white" />
    <path
        d="M104.632 40.3777C104.632 39.6564 105.303 39.2539 106.125 39.2539C107.014 39.2539 107.618 39.6061 107.92 40.3274L109.145 39.6397C108.608 38.5493 107.484 37.8951 106.125 37.8951C105.27 37.8951 104.565 38.13 103.995 38.5996C103.442 39.0693 103.156 39.6732 103.156 40.3945C103.156 42.1726 104.867 42.6087 106.193 42.961C107.115 43.1791 107.853 43.5481 107.853 44.2023C107.853 44.9907 107.149 45.343 106.193 45.343C105.169 45.343 104.381 44.8397 104.112 44.0346L102.854 44.7559C103.341 45.9469 104.565 46.7185 106.193 46.7185C107.115 46.7185 107.853 46.4836 108.44 46.0307C109.027 45.5778 109.329 44.9572 109.329 44.2023C109.346 42.4074 107.602 41.921 106.293 41.6358C105.371 41.3842 104.632 41.0319 104.632 40.3777Z"
        fill="white" />
    <path
        d="M116.131 38.1132H113.9V35.7648L112.441 36.2009V38.1132H110.78V39.5222H112.441V44.0681C112.441 46.1481 113.581 46.8359 116.131 46.5004V45.192C114.638 45.2591 113.9 45.3597 113.9 44.0681V39.5222H116.131V38.1132Z"
        fill="white" />
    <path
        d="M119.485 37.0732C120.021 37.0732 120.458 36.637 120.458 36.1003C120.458 35.5635 120.021 35.1106 119.485 35.1106C118.931 35.1106 118.495 35.5635 118.495 36.1003C118.495 36.637 118.931 37.0732 119.485 37.0732ZM120.206 46.5004V38.1132H118.747V46.5004H120.206Z"
        fill="white" />
    <path
        d="M127.213 46.7185C128.84 46.7185 130.266 45.863 130.987 44.5378L129.746 43.8165C129.276 44.7055 128.337 45.2759 127.213 45.2759C126.374 45.2759 125.67 44.9907 125.1 44.4204C124.546 43.85 124.261 43.1455 124.261 42.3068C124.261 41.4513 124.546 40.7468 125.1 40.1764C125.67 39.6061 126.374 39.3209 127.213 39.3209C128.337 39.3209 129.276 39.9081 129.696 40.7971L130.92 40.0926C130.266 38.7506 128.874 37.8951 127.213 37.8951C125.955 37.8951 124.898 38.3145 124.06 39.17C123.221 40.0087 122.801 41.0487 122.801 42.3068C122.801 43.5649 123.221 44.6049 124.06 45.4604C124.898 46.2991 125.955 46.7185 127.213 46.7185Z"
        fill="white" />
    <path
        d="M134.46 40.3777C134.46 39.6564 135.131 39.2539 135.952 39.2539C136.842 39.2539 137.445 39.6061 137.747 40.3274L138.972 39.6397C138.435 38.5493 137.311 37.8951 135.952 37.8951C135.097 37.8951 134.392 38.13 133.822 38.5996C133.269 39.0693 132.983 39.6732 132.983 40.3945C132.983 42.1726 134.694 42.6087 136.02 42.961C136.942 43.1791 137.68 43.5481 137.68 44.2023C137.68 44.9907 136.976 45.343 136.02 45.343C134.996 45.343 134.208 44.8397 133.94 44.0346L132.681 44.7559C133.168 45.9469 134.392 46.7185 136.02 46.7185C136.942 46.7185 137.68 46.4836 138.267 46.0307C138.854 45.5778 139.156 44.9572 139.156 44.2023C139.173 42.4074 137.429 41.921 136.12 41.6358C135.198 41.3842 134.46 41.0319 134.46 40.3777Z"
        fill="white" />
</svg>