<svg width="100" height="36" viewBox="0 0 100 36" fill="none" xmlns="http://www.w3.org/2000/svg">
    <path
        d="M23.0664 4.1377H21.4051C20.744 4.1377 20.208 4.67699 20.208 5.34206V17.7195C20.208 18.3846 20.744 18.9239 21.4051 18.9239H23.0664C23.7274 18.9239 24.2635 18.3846 24.2635 17.7195V5.34165C24.2635 4.67658 23.7274 4.1377 23.0664 4.1377Z"
        fill="#EE0033" />
    <path
        d="M17.0928 4.1377C16.0457 4.1377 15.1669 4.76906 14.7407 5.67337L10.3294 15.1015C10.2252 15.3247 10.0177 15.6873 9.84403 15.6873C9.6708 15.6873 9.46284 15.3247 9.35865 15.1015L4.91752 5.67337C4.49179 4.76947 3.61256 4.1377 2.5654 4.1377H0L7.00163 17.7799C7.69497 19.1191 9.11597 19.0912 9.84403 19.0912C10.8495 19.0912 12.0278 19.0353 12.6517 17.7799L19.6537 4.1377H17.0928Z"
        fill="#EE0033" />
    <path
        d="M94.4558 1.87197C94.4558 1.2069 93.9198 0.667603 93.2587 0.667603H91.5975C90.9364 0.667603 90.4004 1.2069 90.4004 1.87197V14.0977C90.4004 15.9672 91.0586 17.0548 92.2373 17.8358C93.3813 18.5892 94.6981 18.9238 97.1593 18.9238H98.4925C99.1536 18.9238 99.6896 18.3845 99.6896 17.7195V16.4132H98.6845C97.9564 16.4132 96.4317 16.3852 95.53 15.7715C94.3517 14.9901 94.4554 13.5954 94.4554 12.5908V1.87197H94.4558Z"
        fill="#EE0033" />
    <path
        d="M68.494 16.413C67.766 16.413 66.2408 16.385 65.3399 15.7713C64.1616 14.9899 64.2654 13.5952 64.2654 12.5906V6.64855H68.1982C68.8593 6.64855 69.3949 6.10925 69.3949 5.44418V4.13746H64.2654V1.87136H64.265C64.265 1.20628 63.7289 0.666992 63.0679 0.666992H61.4066C60.7455 0.666992 60.2095 1.20628 60.2095 1.87136V4.13746H51.7521V1.87136C51.7521 1.20628 51.2161 0.666992 50.555 0.666992H48.8938C48.2327 0.666992 47.6967 1.20628 47.6967 1.87136V4.13746H45.166V5.44418C45.166 6.10925 45.7021 6.64855 46.3627 6.64855H47.6963V14.0971C47.6963 15.9666 48.3549 17.0542 49.5332 17.8352C50.6772 18.5886 51.994 18.9232 54.4556 18.9232H55.7888C56.4499 18.9232 56.9859 18.3839 56.9859 17.7189V16.4125H55.9808C55.2528 16.4125 53.7276 16.3846 52.8263 15.7709C51.6475 14.9895 51.7517 13.5948 51.7517 12.5902V6.64855H60.2091V14.0971C60.2091 15.9666 60.8677 17.0542 62.0464 17.8352C63.1904 18.5886 64.5072 18.9232 66.9685 18.9232H68.3016C68.9627 18.9232 69.4987 18.3839 69.4987 17.7189V16.4125H68.494V16.413Z"
        fill="#EE0033" />
    <path
        d="M43.6758 17.7195V16.4128H34.6984C33.2079 16.4128 31.5095 16.2455 30.9898 14.6551C30.8509 14.2087 30.7467 13.26 30.7467 12.6188H41.4226C42.1506 12.6188 42.8436 12.507 43.3984 12.0606C44.1608 11.4469 44.265 10.5821 44.265 9.82863C44.265 7.9596 43.8143 6.11811 41.6653 5.03048C39.9669 4.16564 37.7487 4.08179 35.5997 4.08179C33.8665 4.08179 30.7467 4.08179 28.7365 5.47647C26.726 6.87115 26.5527 8.90789 26.5527 11.6697C26.5527 13.6226 26.6565 15.6589 27.87 17.054C29.3947 18.7837 31.6133 18.9235 33.4853 18.9235H42.4791C43.1402 18.9239 43.6758 18.385 43.6758 17.7195ZM40.071 9.2433C40.071 9.6338 39.9673 10.1081 39.1697 10.1081H33.4016C31.9352 10.1081 30.7463 10.7827 30.7463 11.6146V10.1081C30.781 9.13191 30.7463 8.32256 31.5785 7.56952C32.6878 6.56492 34.3515 6.59287 35.426 6.59287C36.57 6.59287 37.8868 6.64877 38.8923 7.26247C39.4819 7.62501 40.071 8.32256 40.071 9.2433Z"
        fill="#EE0033" />
    <path
        d="M87.5235 17.7195V16.4128H78.546C77.0556 16.4128 75.3571 16.2455 74.8374 14.6551C74.6985 14.2087 74.5943 13.26 74.5943 12.6188H85.2706C85.9987 12.6188 86.6916 12.507 87.2465 12.0606C88.0089 11.4469 88.1131 10.5821 88.1131 9.82863C88.1131 7.9596 87.662 6.11811 85.5129 5.03048C83.8149 4.16564 81.5964 4.08179 79.4473 4.08179C77.7142 4.08179 74.5943 4.08179 72.5842 5.47647C70.5736 6.87115 70.4004 8.90789 70.4004 11.6697C70.4004 13.6226 70.5042 15.6589 71.7176 17.054C73.2424 18.7837 75.4609 18.9235 77.333 18.9235H86.3268C86.9874 18.9239 87.5235 18.385 87.5235 17.7195ZM83.9187 9.2433C83.9187 9.6338 83.8149 10.1081 83.0174 10.1081H77.2496C75.7833 10.1081 74.5943 10.7827 74.5943 11.6146V10.1081C74.6291 9.13191 74.5943 8.32256 75.4262 7.56952C76.5355 6.56492 78.1996 6.59287 79.2737 6.59287C80.4173 6.59287 81.7345 6.64877 82.74 7.26247C83.3295 7.62501 83.9187 8.32256 83.9187 9.2433Z"
        fill="#EE0033" />
    <path
        d="M23.0664 0H21.4051C20.744 0 20.208 0.539292 20.208 1.20436V1.53813V4.138H20.2244C20.3392 3.45484 21.1109 2.7425 22.2357 2.7425H23.0664C23.7274 2.7425 24.2635 2.20321 24.2635 1.53813V1.20436C24.2635 0.539292 23.7274 0 23.0664 0Z"
        fill="#EE0033" />
    <path d="M49.0164 24.6H47.9004V33H52.6404V31.944H49.0164V24.6Z" fill="black" />
    <path
        d="M59.3158 32.244C59.9278 31.632 60.2398 30.888 60.2398 30C60.2398 29.112 59.9278 28.368 59.3158 27.756C58.7038 27.144 57.9478 26.844 57.0718 26.844C56.1958 26.844 55.4398 27.144 54.8278 27.756C54.2158 28.368 53.9158 29.112 53.9158 30C53.9158 30.888 54.2158 31.632 54.8278 32.244C55.4398 32.856 56.1958 33.156 57.0718 33.156C57.9478 33.156 58.7038 32.856 59.3158 32.244ZM57.0718 32.136C56.4838 32.136 55.9798 31.932 55.5718 31.524C55.1638 31.116 54.9598 30.612 54.9598 30C54.9598 29.388 55.1638 28.884 55.5718 28.476C55.9798 28.068 56.4838 27.864 57.0718 27.864C57.6718 27.864 58.1758 28.068 58.5838 28.476C58.9918 28.884 59.1958 29.388 59.1958 30C59.1958 30.612 58.9918 31.116 58.5838 31.524C58.1758 31.932 57.6718 32.136 57.0718 32.136Z"
        fill="black" />
    <path
        d="M67.0505 28.032C66.5345 27.24 65.7785 26.844 64.7945 26.844C63.9425 26.844 63.2105 27.144 62.6225 27.756C62.0345 28.356 61.7345 29.088 61.7345 29.964C61.7345 30.84 62.0345 31.572 62.6225 32.184C63.2105 32.796 63.9425 33.096 64.7945 33.096C65.7665 33.096 66.5225 32.7 67.0505 31.896V32.748C67.0505 33.888 66.2945 34.584 65.0465 34.584C64.0745 34.584 63.4145 34.248 63.0905 33.576L62.1785 34.092C62.6705 35.04 63.6785 35.556 65.0225 35.556C65.8625 35.556 66.5825 35.304 67.1825 34.812C67.7825 34.32 68.0825 33.636 68.0825 32.748V27H67.0505V28.032ZM67.0505 29.964C67.0505 30.576 66.8465 31.08 66.4385 31.488C66.0305 31.896 65.5265 32.1 64.9145 32.1C64.3025 32.1 63.7985 31.896 63.3905 31.488C62.9825 31.08 62.7785 30.576 62.7785 29.964C62.7785 29.364 62.9825 28.86 63.3905 28.452C63.7985 28.044 64.3025 27.84 64.9145 27.84C65.5265 27.84 66.0305 28.044 66.4385 28.452C66.8465 28.86 67.0505 29.364 67.0505 29.964Z"
        fill="black" />
    <path
        d="M70.7923 26.256C71.1763 26.256 71.4883 25.944 71.4883 25.56C71.4883 25.176 71.1763 24.852 70.7923 24.852C70.3963 24.852 70.0843 25.176 70.0843 25.56C70.0843 25.944 70.3963 26.256 70.7923 26.256ZM71.3083 33V27H70.2643V33H71.3083Z"
        fill="black" />
    <path
        d="M74.3893 28.62C74.3893 28.104 74.8693 27.816 75.4573 27.816C76.0933 27.816 76.5253 28.068 76.7413 28.584L77.6173 28.092C77.2333 27.312 76.4293 26.844 75.4573 26.844C74.8453 26.844 74.3413 27.012 73.9333 27.348C73.5373 27.684 73.3333 28.116 73.3333 28.632C73.3333 29.904 74.5573 30.216 75.5053 30.468C76.1653 30.624 76.6933 30.888 76.6933 31.356C76.6933 31.92 76.1893 32.172 75.5053 32.172C74.7733 32.172 74.2093 31.812 74.0173 31.236L73.1173 31.752C73.4653 32.604 74.3413 33.156 75.5053 33.156C76.1653 33.156 76.6933 32.988 77.1133 32.664C77.5333 32.34 77.7493 31.896 77.7493 31.356C77.7613 30.072 76.5133 29.724 75.5773 29.52C74.9173 29.34 74.3893 29.088 74.3893 28.62Z"
        fill="black" />
    <path
        d="M82.615 27H81.019V25.32L79.975 25.632V27H78.787V28.008H79.975V31.26C79.975 32.748 80.791 33.24 82.615 33V32.064C81.547 32.112 81.019 32.184 81.019 31.26V28.008H82.615V27Z"
        fill="black" />
    <path
        d="M85.0141 26.256C85.3981 26.256 85.7101 25.944 85.7101 25.56C85.7101 25.176 85.3981 24.852 85.0141 24.852C84.6181 24.852 84.3061 25.176 84.3061 25.56C84.3061 25.944 84.6181 26.256 85.0141 26.256ZM85.5301 33V27H84.4861V33H85.5301Z"
        fill="black" />
    <path
        d="M90.5429 33.156C91.7069 33.156 92.7269 32.544 93.2429 31.596L92.3549 31.08C92.0189 31.716 91.3469 32.124 90.5429 32.124C89.9429 32.124 89.4389 31.92 89.0309 31.512C88.6349 31.104 88.4309 30.6 88.4309 30C88.4309 29.388 88.6349 28.884 89.0309 28.476C89.4389 28.068 89.9429 27.864 90.5429 27.864C91.3469 27.864 92.0189 28.284 92.3189 28.92L93.1949 28.416C92.7269 27.456 91.7309 26.844 90.5429 26.844C89.6429 26.844 88.8869 27.144 88.2869 27.756C87.6869 28.356 87.3869 29.1 87.3869 30C87.3869 30.9 87.6869 31.644 88.2869 32.256C88.8869 32.856 89.6429 33.156 90.5429 33.156Z"
        fill="black" />
    <path
        d="M95.7268 28.62C95.7268 28.104 96.2068 27.816 96.7948 27.816C97.4308 27.816 97.8628 28.068 98.0788 28.584L98.9548 28.092C98.5708 27.312 97.7668 26.844 96.7948 26.844C96.1828 26.844 95.6788 27.012 95.2708 27.348C94.8748 27.684 94.6708 28.116 94.6708 28.632C94.6708 29.904 95.8948 30.216 96.8428 30.468C97.5028 30.624 98.0308 30.888 98.0308 31.356C98.0308 31.92 97.5268 32.172 96.8428 32.172C96.1108 32.172 95.5468 31.812 95.3548 31.236L94.4548 31.752C94.8028 32.604 95.6788 33.156 96.8428 33.156C97.5028 33.156 98.0308 32.988 98.4508 32.664C98.8708 32.34 99.0868 31.896 99.0868 31.356C99.0988 30.072 97.8508 29.724 96.9148 29.52C96.2548 29.34 95.7268 29.088 95.7268 28.62Z"
        fill="black" />
</svg>